<!-- <svg id="visual" viewBox="0 0 900 600" width="900" height="600" xmlns="http://www.w3.org/2000/svg" xmlns:xlink="http://www.w3.org/1999/xlink" version="1.1"><rect x="0" y="0" width="900" height="600" fill="#001220"></rect><g fill="#A7233A"><circle r="147" cx="847" cy="395"></circle><circle r="65" cx="190" cy="486"></circle><circle r="143" cx="484" cy="26"></circle></g></svg> -->
<!-- <svg id="visual" viewBox="0 0 900 600" width="900" height="600" xmlns="http://www.w3.org/2000/svg" xmlns:xlink="http://www.w3.org/1999/xlink" version="1.1"><rect x="0" y="0" width="900" height="600" fill="#002233"></rect><path d="M0 514L21.5 495.3C43 476.7 86 439.3 128.8 434.2C171.7 429 214.3 456 257.2 473.5C300 491 343 499 385.8 484.3C428.7 469.7 471.3 432.3 514.2 426.2C557 420 600 445 642.8 451.8C685.7 458.7 728.3 447.3 771.2 448.7C814 450 857 464 878.5 471L900 478L900 601L878.5 601C857 601 814 601 771.2 601C728.3 601 685.7 601 642.8 601C600 601 557 601 514.2 601C471.3 601 428.7 601 385.8 601C343 601 300 601 257.2 601C214.3 601 171.7 601 128.8 601C86 601 43 601 21.5 601L0 601Z" fill="#0066FF" stroke-linecap="round" stroke-linejoin="miter"></path></svg> -->
<!-- <svg id="visual" viewBox="0 0 900 600" width="900" height="600" xmlns="http://www.w3.org/2000/svg" xmlns:xlink="http://www.w3.org/1999/xlink" version="1.1"><rect x="0" y="0" width="900" height="600" fill="#240134"></rect><path d="M0 480L21.5 453.8C43 427.7 86 375.3 128.8 368C171.7 360.7 214.3 398.3 257.2 422.8C300 447.3 343 458.7 385.8 438.2C428.7 417.7 471.3 365.3 514.2 356.7C557 348 600 383 642.8 392.7C685.7 402.3 728.3 386.7 771.2 388.7C814 390.7 857 410.3 878.5 420.2L900 430L900 601L878.5 601C857 601 814 601 771.2 601C728.3 601 685.7 601 642.8 601C600 601 557 601 514.2 601C471.3 601 428.7 601 385.8 601C343 601 300 601 257.2 601C214.3 601 171.7 601 128.8 601C86 601 43 601 21.5 601L0 601Z" fill="#0066FF" stroke-linecap="round" stroke-linejoin="miter"></path></svg>
 -->

 <svg id="visual" viewBox="0 0 900 600" width="900" height="600" xmlns="http://www.w3.org/2000/svg" xmlns:xlink="http://www.w3.org/1999/xlink" version="1.1"><rect x="0" y="0" width="900" height="600" fill="#240134"></rect><path d="M0 411L21.5 383.5C43 356 86 301 128.8 296.2C171.7 291.3 214.3 336.7 257.2 330.7C300 324.7 343 267.3 385.8 245.2C428.7 223 471.3 236 514.2 262.2C557 288.3 600 327.7 642.8 348.5C685.7 369.3 728.3 371.7 771.2 374C814 376.3 857 378.7 878.5 379.8L900 381L900 601L878.5 601C857 601 814 601 771.2 601C728.3 601 685.7 601 642.8 601C600 601 557 601 514.2 601C471.3 601 428.7 601 385.8 601C343 601 300 601 257.2 601C214.3 601 171.7 601 128.8 601C86 601 43 601 21.5 601L0 601Z" fill="#0066FF" stroke-linecap="round" stroke-linejoin="miter"></path></svg>